<svg version="1.1" xmlns="http://www.w3.org/2000/svg" xmlns:xlink="http://www.w3.org/1999/xlink" width="91.83332" height="85.77988" viewBox="0,0,91.83332,85.77988"><g transform="translate(-289.08334,-137.00673)"><g data-paper-data="{&quot;isPaintingLayer&quot;:true}" fill-rule="nonzero" stroke="#000000" stroke-linejoin="miter" stroke-miterlimit="10" stroke-dasharray="" stroke-dashoffset="0" style="mix-blend-mode: normal"><path d="M290.50253,221.53661v-26.23365h44.15908v26.23365z" fill="#23006a" stroke-width="2.5" stroke-linecap="butt"/><path d="M335.50758,221.53661v-26.23365h44.15908v26.23365z" fill="#23006a" stroke-width="2.5" stroke-linecap="butt"/><path d="M313.00505,193.20427v-26.23365h44.15908v26.23365z" fill="#23006a" stroke-width="2.5" stroke-linecap="butt"/><path d="M357.8409,193.20427v-26.23365h21.65656v26.23365z" fill="#23006a" stroke-width="2.5" stroke-linecap="butt"/><path d="M290.33334,193.20427v-26.23365h22.16414v26.23365z" fill="#23006a" stroke-width="2.5" stroke-linecap="butt"/><path d="M290.50253,164.49038v-26.23365h44.15908v26.23365z" fill="#23006a" stroke-width="2.5" stroke-linecap="butt"/><path d="M335.50758,164.69703v-26.23365h44.15908v26.23365z" fill="#23006a" stroke-width="2.5" stroke-linecap="butt"/><path d="M328.37075,157.62655l-10.35819,-8.07939" fill="none" stroke-width="3" stroke-linecap="round"/><path d="M340.17909,159.0767l10.97969,-9.94387" fill="none" stroke-width="3" stroke-linecap="round"/><path d="M327.95643,161.14834v21.95937" fill="none" stroke-width="3" stroke-linecap="round"/><path d="M342.25073,162.39132v19.88773" fill="none" stroke-width="3" stroke-linecap="round"/><path d="M322.57016,188.2868l9.52954,-0.20716" fill="none" stroke-width="3" stroke-linecap="round"/><path d="M338.72895,187.45815l9.7367,-0.41433" fill="none" stroke-width="3" stroke-linecap="round"/></g></g></svg>